# File created by Blade
# Date/Time:  Thu Jan 22 19:24:27 2015
#---------------------------------------------------------
:version 1.10
:name HOM
:units
  mass 1.0
  length 1.000000
  angle deg
:documentation
     Acclaim Skeleton File
:root
   axis xyz
   order TX TY TZ RX RY RZ
   position 0.000000 0.000000 0.000000
   orientation 0 0 0
:bonedata
   begin
      id 1
      name RightUpLeg_dum
      direction -1.000000 0.000000 0.000000
      length 4.478084
      axis 0.0 0.0 0.0 xyz
   end
   begin
      id 2
      name LeftUpLeg_dum
      direction 1.000000 0.000000 0.000000
      length 4.478084
      axis 0.0 0.0 0.0 xyz
   end
   begin
      id 3
      name Spine_dum
      direction 0.000000 1.000000 0.000000
      length 6.068208
      axis 0.0 0.0 0.0 xyz
   end
   begin
      id 4
      name RightUpLeg
      direction 0.000000 -1.000000 0.000000
      length 16.405774
      axis 0.0 0.0 0.0 xyz
      dof rx ry rz
   end
   begin
      id 5
      name RightLeg
      direction 0.000000 -1.000000 0.000000
      length 14.644143
      axis 0.0 0.0 0.0 xyz
      dof rx ry rz
   end
   begin
      id 6
      name RightFoot
      direction 0.000000 -0.258819 0.965926
      length 5.806150
      axis 15.0 0.0 0.0 xyz
      dof rx ry rz
   end
   begin
      id 7
      name RightToeBase
      direction 0.000000 0.000000 1.000000
      length 2.952750
      axis 0.0 0.0 0.0 xyz
      dof rx ry rz
   end
   begin
      id 8
      name LeftUpLeg
      direction 0.000000 -1.000000 0.000000
      length 16.405774
      axis 0.0 0.0 0.0 xyz
      dof rx ry rz
   end
   begin
      id 9
      name LeftLeg
      direction 0.000000 -1.000000 0.000000
      length 14.644143
      axis 0.0 0.0 0.0 xyz
      dof rx ry rz
   end
   begin
      id 10
      name LeftFoot
      direction 0.000000 -0.258819 0.965926
      length 5.806150
      axis 15.0 0.0 0.0 xyz
      dof rx ry rz
   end
   begin
      id 11
      name LeftToeBase
      direction 0.000000 0.000000 1.000000
      length 2.952750
      axis 0.0 0.0 0.0 xyz
      dof rx ry rz
   end
   begin
      id 12
      name Spine
      direction 0.000000 1.000000 0.000000
      length 0.000000
      axis 0.0 0.0 0.0 xyz
      dof rx ry rz
   end
   begin
      id 13
      name Spine_dum1
      direction 0.000000 1.000000 0.000000
      length 10.013923
      axis 0.0 0.0 0.0 xyz
   end
   begin
      id 14
      name Spine_dum2
      direction 0.000000 1.000000 0.000000
      length 10.013923
      axis 0.0 0.0 0.0 xyz
   end
   begin
      id 15
      name Spine_dum3
      direction 0.000000 1.000000 0.000000
      length 15.777476
      axis 0.0 0.0 0.0 xyz
   end
   begin
      id 16
      name RightShoulder
      direction -1.000000 0.000000 0.000000
      length 7.190220
      axis 0.0 0.0 90.0 xyz
      dof rx ry rz
   end
   begin
      id 17
      name RightArm
      direction -1.000000 0.000000 0.000000
      length 10.177469
      axis 0.0 0.0 90.0 xyz
      dof rx ry rz
   end
   begin
      id 18
      name RightForeArm
      direction -1.000000 0.000000 0.000000
      length 8.392114
      axis 0.0 0.0 90.0 xyz
      dof ry rz rx
   end
   begin
      id 19
      name RightHand
      direction -1.000000 0.000000 0.000000
      length 0.000000
      axis 0.0 0.0 90.0 xyz
      dof rx ry rz
   end
   begin
      id 20
      name RightHand_dum1
      direction -1.000000 0.000000 0.000000
      length 3.937000
      axis 0.0 0.0 90.0 xyz
   end
   begin
      id 21
      name RightHand_dum2
      direction 0.000000 0.000000 0.000000
      length 0.000000
      axis 0.0 0.0 90.0 xyz
   end
   begin
      id 22
      name RightHandThumb1
      direction 0.000000 0.000000 1.000000
      length 3.937000
      axis 0.0 0.0 90.0 xyz
      dof rx rz ry
   end
   begin
      id 23
      name LeftShoulder
      direction 1.000000 0.000000 0.000000
      length 7.190220
      axis 0.0 0.0 -90.0 xyz
      dof rx ry rz
   end
   begin
      id 24
      name LeftArm
      direction 1.000000 0.000000 0.000000
      length 10.177469
      axis 0.0 0.0 -90.0 xyz
      dof rx ry rz
   end
   begin
      id 25
      name LeftForeArm
      direction 1.000000 0.000000 0.000000
      length 8.392114
      axis 0.0 0.0 -90.0 xyz
      dof ry rz rx
   end
   begin
      id 26
      name LeftHand
      direction 1.000000 0.000000 0.000000
      length 0.000000
      axis 0.0 0.0 -90.0 xyz
      dof rx ry rz
   end
   begin
      id 27
      name LeftHand_dum1
      direction 1.000000 0.000000 0.000000
      length 3.937000
      axis 0.0 0.0 -90.0 xyz
   end
   begin
      id 28
      name LeftHand_dum2
      direction 0.000000 0.000000 0.000000
      length 0.000000
      axis 0.0 0.0 -90.0 xyz
   end
   begin
      id 29
      name LeftHandThumb1
      direction 0.000000 0.000000 1.000000
      length 3.937000
      axis 0.0 0.0 -90.0 xyz
      dof rx rz ry
   end
   begin
      id 30
      name Head
      direction 0.000000 1.000000 0.000000
      length 4.527550
      axis 0.0 0.0 0.0 xyz
      dof rx ry rz
   end
:hierarchy
   begin
      root RightUpLeg_dum LeftUpLeg_dum Spine_dum
      RightUpLeg_dum RightUpLeg
      LeftUpLeg_dum LeftUpLeg
      Spine_dum Spine
      RightUpLeg RightLeg
      RightLeg RightFoot
      RightFoot RightToeBase
      LeftUpLeg LeftLeg
      LeftLeg LeftFoot
      LeftFoot LeftToeBase
      Spine Spine_dum1 Spine_dum2 Spine_dum3
      Spine_dum1 RightShoulder
      Spine_dum2 LeftShoulder
      Spine_dum3 Head
      RightShoulder RightArm
      RightArm RightForeArm
      RightForeArm RightHand
      RightHand RightHand_dum1 RightHand_dum2
      RightHand_dum2 RightHandThumb1
      LeftShoulder LeftArm
      LeftArm LeftForeArm
      LeftForeArm LeftHand
      LeftHand LeftHand_dum1 LeftHand_dum2
      LeftHand_dum2 LeftHandThumb1
   end

# File created by Blade
# Date/Time:  Thu Jan 22 19:24:19 2015
# Frame Rate: 120.000 fps
#------------------------------------------------------
:FULLY-SPECIFIED
:DEGREES
1255
root -6.570744 32.238775 -3.400898 8.495833 -19.088373 -3.207861
RightUpLeg 1.373377 15.765070 14.166956
RightLeg -2.830401 -0.000000 0.000000
RightFoot -6.772614 -3.317885 -7.647771
RightToeBase 4.690054 -0.000000 -0.000000
LeftUpLeg -17.692176 7.034740 -11.658798
LeftLeg 27.672370 -0.000000 -0.000000
LeftFoot -21.938670 11.685351 -7.649962
LeftToeBase 5.940620 -0.000000 -0.000000
Spine -8.951624 3.311620 -6.285083
RightShoulder -16.633944 1.064195 -39.438638
RightArm 22.399179 49.130375 34.583257
RightForeArm 2.231714 -0.000000 20.981411
RightHand 17.725533 -0.000000 -7.687492
RightHandThumb1 -24.326973 -0.000000 -32.862282
LeftShoulder -22.010619 8.849269 14.930447
LeftArm 10.886862 38.072180 -82.875850
LeftForeArm 18.006456 -0.000000 19.151752
LeftHand -0.248363 -0.000000 -14.458980
LeftHandThumb1 -26.253704 0.000000 33.147579
Head -8.647683 12.980673 -2.200529
1256
root -6.516064 32.243072 -3.423900 8.513743 -18.946893 -3.262493
RightUpLeg 1.230651 15.481204 14.136811
RightLeg -2.729475 -0.000000 0.000000
RightFoot -6.847540 -3.177858 -7.584968
RightToeBase 4.700149 -0.000000 -0.000000
LeftUpLeg -18.185900 7.075016 -11.682740
LeftLeg 28.530547 -0.000000 -0.000000
LeftFoot -21.669038 11.631632 -7.483077
LeftToeBase 5.570380 -0.000000 -0.000000
Spine -8.851953 3.239739 -6.035483
RightShoulder -16.671380 0.938708 -39.151111
RightArm 22.095432 48.992514 34.935643
RightForeArm 2.298454 -0.000000 21.124937
RightHand 17.929796 -0.000000 -7.943705
RightHandThumb1 -24.326973 -0.000000 -32.862282
LeftShoulder -22.047114 8.780255 14.837476
LeftArm 10.951919 37.956654 -82.766836
LeftForeArm 18.142429 -0.000000 18.976527
LeftHand -0.429238 -0.000000 -14.170796
LeftHandThumb1 -26.253704 0.000000 33.147579
Head -8.771889 12.945295 -2.233340
1257
root -6.461479 32.251724 -3.448237 8.504189 -18.813974 -3.273391
RightUpLeg 1.078689 15.215211 14.071551
RightLeg -2.582670 -0.000000 0.000000
RightFoot -6.916466 -3.073559 -7.552559
RightToeBase 4.700466 -0.000000 -0.000000
LeftUpLeg -18.745327 7.077746 -11.744371
LeftLeg 29.523623 -0.000000 -0.000000
LeftFoot -21.255078 11.574472 -7.587451
LeftToeBase 4.763865 -0.000000 -0.000000
Spine -8.733432 3.189033 -5.850649
RightShoulder -16.711792 0.139540 -38.610770
RightArm 22.401239 49.471011 35.744956
RightForeArm 2.375840 -0.000000 21.311108
RightHand 17.972166 -0.000000 -8.013876
RightHandThumb1 -24.326973 -0.000000 -32.862282
LeftShoulder -22.029018 8.699039 14.758565
LeftArm 10.972524 37.767776 -82.688810
LeftForeArm 18.270821 -0.000000 18.805509
LeftHand -0.451781 -0.000000 -13.976636
LeftHandThumb1 -26.253704 0.000000 33.147579
Head -8.857617 12.918621 -2.229631
1258
root -6.403442 32.265450 -3.474836 8.480878 -18.697822 -3.245155
RightUpLeg 0.902799 14.991162 13.959316
RightLeg -2.398333 -0.000000 0.000000
RightFoot -6.967452 -2.968333 -7.521921
RightToeBase 4.563421 -0.000000 -0.000000
LeftUpLeg -19.423031 7.213828 -11.858056
LeftLeg 30.719715 -0.000000 -0.000000
LeftFoot -20.747587 11.327625 -7.817523
LeftToeBase 3.954844 -0.000000 -0.000000
Spine -8.601243 3.123065 -5.699718
RightShoulder -16.715122 -0.191211 -38.203910
RightArm 22.262960 49.586327 36.215194
RightForeArm 2.388345 -0.000000 21.482473
RightHand 17.996681 -0.000000 -8.179146
RightHandThumb1 -24.326973 -0.000000 -32.862282
LeftShoulder -22.097720 8.752859 14.615855
LeftArm 11.268471 37.631328 -82.451651
LeftForeArm 18.273993 0.000000 18.521674
LeftHand -0.490542 -0.000000 -13.704804
LeftHandThumb1 -26.253704 0.000000 33.147579
Head -8.984966 12.892197 -2.267733
1259
root -6.342367 32.281681 -3.501174 8.430034 -18.554943 -3.180883
RightUpLeg 0.739867 14.734476 13.815346
RightLeg -2.214439 -0.000000 0.000000
RightFoot -7.031277 -2.846295 -7.546275
RightToeBase 4.585977 -0.000000 -0.000000
LeftUpLeg -20.219694 7.325529 -12.022865
LeftLeg 32.145370 -0.000000 -0.000000
LeftFoot -20.063576 11.203857 -8.002937
LeftToeBase 2.818419 -0.000000 -0.000000
Spine -8.433476 3.067812 -5.583264
RightShoulder -16.732758 -0.362443 -37.885686
RightArm 21.882059 49.479618 36.531597
RightForeArm 2.496449 -0.000000 21.600755
RightHand 18.011662 -0.000000 -8.218214
RightHandThumb1 -24.326973 -0.000000 -32.862282
LeftShoulder -22.127266 8.705185 14.529122
LeftArm 11.459623 37.506726 -82.303975
LeftForeArm 18.323539 -0.000000 18.242434
LeftHand -0.581282 0.000000 -13.424228
LeftHandThumb1 -26.253704 0.000000 33.147579
Head -9.149949 12.827485 -2.283377
1260
root -6.280268 32.299238 -3.525150 8.321878 -18.387664 -3.066533
RightUpLeg 0.629454 14.449352 13.645996
RightLeg -2.049781 -0.000000 0.000000
RightFoot -7.094852 -2.781372 -7.583640
RightToeBase 4.580889 -0.000000 -0.000000
LeftUpLeg -21.102258 7.450143 -12.234204
LeftLeg 33.782534 -0.000000 -0.000000
LeftFoot -19.206204 11.035243 -8.284509
LeftToeBase 1.433536 -0.000000 -0.000000
Spine -8.217756 2.987444 -5.504409
RightShoulder -16.736191 -0.451113 -37.613977
RightArm 21.408824 49.245119 36.746120
RightForeArm 2.527577 -0.000000 21.645617
RightHand 17.951085 0.000000 -8.543733
RightHandThumb1 -24.326973 -0.000000 -32.862282
LeftShoulder -22.133407 8.639919 14.478522
LeftArm 11.586946 37.329534 -82.218531
LeftForeArm 18.396774 -0.000000 17.987244
LeftHand -0.839333 -0.000000 -12.858855
LeftHandThumb1 -26.253704 0.000000 33.147579
Head -9.319532 12.763315 -2.338051
1261
root -6.216349 32.318365 -3.550375 8.178111 -18.221307 -2.915733
RightUpLeg 0.531497 14.145798 13.455370
RightLeg -1.865814 -0.000000 0.000000
RightFoot -7.169654 -2.763966 -7.670676
RightToeBase 4.594064 -0.000000 -0.000000
LeftUpLeg -22.073296 7.665474 -12.497401
LeftLeg 35.584408 -0.000000 -0.000000
LeftFoot -18.183620 10.832234 -8.531655
LeftToeBase -0.170553 -0.000000 0.000000
Spine -7.966203 2.915396 -5.463440
RightShoulder -16.736551 -0.786261 -37.195610
RightArm 21.213706 49.244289 37.054791
RightForeArm 2.517074 -0.000000 21.581038
RightHand 17.968565 -0.000000 -8.531956
RightHandThumb1 -24.326973 -0.000000 -32.862282
LeftShoulder -22.113993 8.565363 14.460561
LeftArm 11.721650 37.103366 -82.174835
LeftForeArm 18.379222 0.000000 17.664507
LeftHand -0.977661 -0.000000 -12.505103
LeftHandThumb1 -26.253704 0.000000 33.147579
Head -9.461712 12.690259 -2.427877
1262
root -6.152873 32.337230 -3.578069 8.028657 -17.996934 -2.757913
RightUpLeg 0.430245 13.765461 13.271893
RightLeg -1.689773 -0.000000 0.000000
RightFoot -7.240789 -2.741587 -7.722575
RightToeBase 4.599637 -0.000000 -0.000000
LeftUpLeg -23.133881 7.848755 -12.754258
LeftLeg 37.509941 -0.000000 -0.000000
LeftFoot -17.114079 10.546697 -8.947437
LeftToeBase -1.681585 -0.000000 0.000000
Spine -7.686108 2.835640 -5.423431
RightShoulder -16.755213 -0.962655 -36.867614
RightArm 20.795310 49.060606 37.186728
RightForeArm 2.601589 -0.000000 21.425770
RightHand 17.947883 -0.000000 -8.519915
RightHandThumb1 -24.326973 -0.000000 -32.862282
LeftShoulder -22.089172 8.462861 14.472998
LeftArm 11.847653 36.875194 -82.144573
LeftForeArm 18.448442 -0.000000 17.403637
LeftHand -1.043056 -0.000000 -12.177771
LeftHandThumb1 -26.253704 0.000000 33.147579
Head -9.640238 12.539614 -2.515796
1263
root -6.086558 32.356629 -3.605463 7.845386 -17.750318 -2.567733
RightUpLeg 0.360326 13.321630 13.059241
RightLeg -1.517397 -0.000000 0.000000
RightFoot -7.354640 -2.703449 -7.763151
RightToeBase 4.709481 -0.000000 -0.000000
LeftUpLeg -24.242521 7.903491 -12.975209
LeftLeg 39.503655 -0.000000 -0.000000
LeftFoot -16.040881 10.048822 -10.016903
LeftToeBase -2.871925 -0.000000 0.000000
Spine -7.369528 2.714092 -5.391431
RightShoulder -16.776296 -1.217205 -36.545762
RightArm 20.545647 48.893602 37.433092
RightForeArm 2.550828 0.000000 21.175219
RightHand 18.089332 -0.000000 -8.875122
RightHandThumb1 -24.326973 -0.000000 -32.862282
LeftShoulder -22.091011 8.411105 14.472342
LeftArm 12.036761 36.645401 -82.089534
LeftForeArm 18.437117 -0.000000 17.166916
LeftHand -1.145319 -0.000000 -11.899012
LeftHandThumb1 -26.253704 0.000000 33.147579
Head -9.848599 12.439711 -2.645042
1264
root -6.020988 32.375833 -3.633922 7.648229 -17.464466 -2.387540
RightUpLeg 0.329458 12.865909 12.859562
RightLeg -1.407973 -0.000000 0.000000
RightFoot -7.414828 -2.678756 -7.823090
RightToeBase 4.614631 -0.000000 -0.000000
LeftUpLeg -25.328233 8.013176 -13.200506
LeftLeg 41.374881 -0.000000 -0.000000
LeftFoot -15.086879 9.505269 -11.489612
LeftToeBase -4.439945 -0.000000 0.000000
Spine -7.027122 2.582551 -5.335930
RightShoulder -16.805058 -1.424698 -36.248911
RightArm 20.244396 48.685015 37.629617
RightForeArm 2.559870 0.000000 20.900789
RightHand 17.954683 -0.000000 -8.914484
RightHandThumb1 -24.326973 -0.000000 -32.862282
LeftShoulder -22.048348 8.220161 14.529162
LeftArm 12.011415 36.374053 -82.175042
LeftForeArm 18.493991 -0.000000 16.986328
LeftHand -1.283521 -0.000000 -11.962648
LeftHandThumb1 -26.253704 0.000000 33.147579
Head -10.052181 12.374517 -2.805740
